# xmcd
#
# Track frame offsets:
#	150
#	19739
#	40245
#	59748
#	76545
#	90230
#	108410
#	128062
#	147057
#	161421
#	177427
#	193167
#	210173
#	227776
#	247537
#	265300
#	282004
#	297921
#	312305
#	325968
#	340357
#
# Disc length: 4799
#
# Revision: 2
# Processed by: cddbd v1.5.1PL0 Copyright (c) Steve Scherf et al.
# Submitted via: audiograbber 1.80
# Normalized: r1:DSETVAR2,TDELIM( - )
#
DISCID=1f12bd15
DTITLE=Various Artist - Best France Dance
DYEAR=1900
DGENRE=
TTITLE0=Alizee - Moi ... Lolita
TTITLE1=Stephanie - Ouragan
TTITLE2=Desireless - Voyage, Voyage
TTITLE3=Images - Corps a Corps
TTITLE4=Debut De Soirre - La Vie La Nuit
TTITLE5=Zouk Machine - Maldon
TTITLE6=Dalida - Darla Darla Dada
TTITLE7=Ottawan - Tant Que Durrera La Nuit
TTITLE8=Kazero - Thai Na Na
TTITLE9=P.Lafontain - coeur De Loup
TTITLE10=Samir Shukry - Rona
TTITLE11=Maxime Le Forestier - Ambalaba
TTITLE12=Les Maiheurs - De Sophie - J'Veux Oser
TTITLE13=Julie Pietri - E Ve Leve Toi
TTITLE14=Jean-Jacques Goldman - Je Marche Seul
TTITLE15=Dalida - Femme (Smile)
TTITLE16=Encore - Le Paradise
TTITLE17=Benny B - Vous Etes Fous
TTITLE18=Sabine Paturel - Les Betises
TTITLE19=Joe Dassin - Taka Taka Ta 2000
TTITLE20=Pierre Bachelet - En I'An 2001
EXTD=
EXTT0=
EXTT1=
EXTT2=
EXTT3=
EXTT4=
EXTT5=
EXTT6=
EXTT7=
EXTT8=
EXTT9=
EXTT10=
EXTT11=
EXTT12=
EXTT13=
EXTT14=
EXTT15=
EXTT16=
EXTT17=
EXTT18=
EXTT19=
EXTT20=
PLAYORDER=
